<?xml version="1.0" encoding="UTF-8"?>
<svg version="1.1" xmlns="http://www.w3.org/2000/svg" width="2000" height="2625">
<path d="M0 0 C13.49850036 3.37462509 13.49850036 3.37462509 19.40820312 5.1027832 C20.3860955 5.3876786 20.3860955 5.3876786 21.38374329 5.67832947 C23.5168773 6.30033906 25.6490549 6.92556149 27.78125 7.55078125 C29.32533415 8.00162007 30.86948482 8.45223114 32.41369629 8.90263367 C35.71480448 9.86588337 39.0155175 10.83047079 42.31591797 11.79614258 C50.32247904 14.13865201 58.33116056 16.47389708 66.33963013 18.80987167 C69.10920347 19.61778921 71.87870008 20.42596942 74.64819336 21.23416138 C91.98137804 26.29127844 109.32489389 31.31240841 126.67054367 36.32657242 C153.43462833 44.06385969 180.18965229 51.83177095 206.9375 59.625 C231.30759019 66.72535391 255.68116205 73.8133609 280.0625 80.875 C306.97028806 88.66846864 333.87185576 96.48318138 360.77115631 104.30589294 C385.82303661 111.59128064 410.87775154 118.8667238 435.9375 126.125 C461.30657704 133.47286977 486.66745849 140.84861732 512.02516937 148.23561096 C535.69945749 155.13211026 559.37762663 162.01494101 583.0625 168.875 C609.97026896 176.6685347 636.87185568 184.48318136 663.77115631 192.30589294 C688.82303661 199.59128064 713.87775154 206.8667238 738.9375 214.125 C764.30657704 221.47286977 789.66745849 228.84861732 815.02516937 236.23561096 C838.69945749 243.13211026 862.37762663 250.01494101 886.0625 256.875 C912.97026896 264.6685347 939.87185568 272.48318136 966.77115631 280.30589294 C991.82303661 287.59128064 1016.87775154 294.8667238 1041.9375 302.125 C1067.30657704 309.47286977 1092.66745849 316.84861732 1118.02516937 324.23561096 C1141.69945749 331.13211026 1165.37762663 338.01494101 1189.0625 344.875 C1215.97026896 352.6685347 1242.87185568 360.48318136 1269.77115631 368.30589294 C1294.82303661 375.59128064 1319.87775154 382.8667238 1344.9375 390.125 C1370.30657704 397.47286977 1395.66745849 404.84861732 1421.02516937 412.23561096 C1444.69945779 419.13211034 1468.37767311 426.01477999 1492.0625 432.875 C1517.69155215 440.29858462 1543.31598803 447.7379322 1568.9375 455.1875 C1570.75325515 455.71542378 1572.56901036 456.24334736 1574.38476562 456.77127075 C1588.18196345 460.78280627 1601.97896687 464.79501026 1615.7759552 468.80726624 C1628.63354867 472.54633198 1641.49120973 476.28516513 1654.34900284 480.02354431 C1657.05383339 480.80998016 1659.75865245 481.59645557 1662.46347046 482.38293457 C1681.15444163 487.81755954 1699.84657091 493.24813272 1718.54296875 498.6640625 C1719.71442538 499.00343747 1719.71442538 499.00343747 1720.90954781 499.3496685 C1728.23181697 501.47093267 1735.55421564 503.59174575 1742.87732029 505.71012402 C1756.76400024 509.72752444 1770.64599711 513.76093662 1784.51844025 517.8272419 C1786.04846236 518.27548983 1787.57866757 518.72311335 1789.10906219 519.17008781 C1791.22853263 519.78934584 1793.34726879 520.41105395 1795.46582031 521.03344727 C1796.68086243 521.38947525 1797.89590454 521.74550323 1799.14776611 522.11231995 C1802 523 1802 523 1804 524 C1804.33 573.5 1804.66 623 1805 674 C1837.98078026 682.99699579 1837.98078026 682.99699579 1870.96557617 691.97924805 C1877.38146973 693.73400879 1877.38146973 693.73400879 1880.39619446 694.56037903 C1882.47661627 695.12929484 1884.55775568 695.69559088 1886.63948059 696.25971985 C1913.02484199 703.41465436 1936.18338538 711.27588951 1950.953125 736.06640625 C1958.07536199 749.00957431 1960.15528092 762.52538427 1960.1276505 777.07318068 C1960.13012667 778.90667711 1960.13012667 778.90667711 1960.13265286 780.77721387 C1960.13623018 784.17856539 1960.13532482 787.5798627 1960.13255108 790.98121146 C1960.13062884 794.69220587 1960.13451067 798.403195 1960.13764787 802.11418796 C1960.14236389 808.64610875 1960.14334548 815.17802197 1960.14191952 821.70994419 C1960.13980048 831.48860811 1960.14340878 841.26726418 1960.1481343 851.04592689 C1960.156013 867.71046324 1960.15909661 884.37499745 1960.15958023 901.03953552 C1960.16008231 917.93298446 1960.16272606 934.826431 1960.16798782 951.71987915 C1960.16831796 952.78596926 1960.16864809 953.85205937 1960.16898823 954.95045524 C1960.1703382 959.29232449 1960.17170086 963.63419374 1960.17308033 967.97606298 C1960.18939089 1019.40463447 1960.19576989 1070.8332055 1960.2005282 1122.26177913 C1960.20291051 1147.86511131 1960.2066138 1173.46844323 1960.2105653 1199.07177521 C1960.22323021 1281.1778918 1960.23401428 1363.28400838 1960.23740576 1445.39012593 C1960.237568 1449.31510225 1960.23773356 1453.24007857 1960.23790014 1457.16505489 C1960.23823394 1465.03679806 1960.23856443 1472.90854123 1960.2388947 1480.7802844 C1960.2392816 1489.99639424 1960.23967121 1499.21250407 1960.24006577 1508.4286139 C1960.24017818 1511.06635001 1960.2402896 1513.70408613 1960.24040002 1516.34182224 C1960.24395002 1601.07007841 1960.25903049 1685.79832611 1960.28233776 1770.52657905 C1960.29907667 1831.40169383 1960.31455328 1892.27680702 1960.31907272 1953.15192413 C1960.31921295 1955.02934068 1960.31921295 1955.02934068 1960.31935601 1956.94468483 C1960.32137495 1984.41914547 1960.32253109 2011.89360609 1960.3228846 2039.36806681 C1960.32302078 2049.19872132 1960.32322977 2059.02937583 1960.32347785 2068.86003033 C1960.32353941 2071.30570696 1960.32359773 2073.75138359 1960.3236528 2076.19706022 C1960.32457303 2115.18541694 1960.33454621 2154.17376482 1960.34911029 2193.16211864 C1960.36371895 2232.42688025 1960.36877265 2271.69163101 1960.36069075 2310.95639486 C1960.35957535 2316.38056734 1960.35856469 2321.80473984 1960.35761642 2327.22891235 C1960.35742646 2328.29221243 1960.35723649 2329.3555125 1960.35704076 2330.45103379 C1960.35430567 2347.29661837 1960.36165374 2364.14218289 1960.37318979 2380.98776311 C1960.38432036 2397.54685312 1960.38477208 2414.10591474 1960.37381961 2430.66500518 C1960.36771765 2440.37620659 1960.36983261 2450.08732238 1960.38407158 2459.79851575 C1960.39270925 2466.24834076 1960.39046175 2472.69810278 1960.37937287 2479.14792389 C1960.37339153 2482.80400412 1960.37201027 2486.45991653 1960.38405773 2490.1159856 C1960.46512133 2516.47277238 1958.34433282 2539.48144148 1939.40234375 2559.62109375 C1925.05329824 2573.83014857 1907.40178763 2581.15571535 1887.3125 2581.5625 C1880.81084562 2581.44521165 1874.72921967 2580.75249389 1868.4296875 2579.1640625 C1867.56208298 2578.95130173 1866.69447845 2578.73854095 1865.80058289 2578.51933289 C1849.70170086 2574.49911091 1833.71887273 2570.00073405 1817.71838379 2565.60949707 C1812.7784667 2564.25462546 1807.83743307 2562.90383812 1802.89648438 2561.55273438 C1794.94306349 2559.3774862 1786.9901491 2557.20039716 1779.03759766 2555.02197266 C1769.57222425 2552.42939406 1760.10524117 2549.84277153 1750.63671875 2547.26171875 C1749.97746588 2547.08200909 1749.31821301 2546.90229942 1748.63898277 2546.71714401 C1745.38306574 2545.82964919 1742.1271047 2544.94231593 1738.87112427 2544.05505371 C1734.93208073 2542.98158788 1730.99323805 2541.90738632 1727.05444336 2540.83300781 C1726.39052991 2540.65191404 1725.72661646 2540.47082027 1725.04258442 2540.28423882 C1723.69090232 2539.9155415 1722.33922061 2539.54684273 1720.98753929 2539.17814255 C1709.93773982 2536.16413963 1698.88756703 2533.15150795 1687.8371582 2530.13973999 C1645.50684619 2518.6026265 1603.18226225 2507.04469977 1560.86248779 2495.46899414 C1513.99631648 2482.64972507 1467.12641773 2469.84425361 1420.25 2457.0625 C1419.22922772 2456.78416541 1419.22922772 2456.78416541 1418.18783379 2456.5002079 C1405.07596742 2452.92499987 1391.96401793 2449.35009671 1378.85198975 2445.77548218 C1359.56249464 2440.51674986 1340.27331156 2435.25687443 1320.984375 2429.99609375 C1320.30398068 2429.81052642 1319.62358637 2429.62495909 1318.92257404 2429.43376851 C1312.73790529 2427.7469921 1306.55324006 2426.06020277 1300.36857986 2424.37339497 C1290.74606363 2421.74894464 1281.1235277 2419.12456651 1271.50097656 2416.50024414 C1270.82032245 2416.31461186 1270.13966834 2416.12897959 1269.43838835 2415.93772209 C1266.00067643 2415.00016803 1262.56296418 2414.06261521 1259.12525177 2413.12506294 C1252.93766069 2411.43754766 1246.7500726 2409.75002142 1240.56248426 2408.06249607 C1237.12498963 2407.12499693 1233.68749481 2406.1874985 1230.25 2405.25 C1228.875 2404.875 1227.5 2404.5 1226.125 2404.125 C1225.1040625 2403.8465625 1225.1040625 2403.8465625 1224.0625 2403.5625 C1156 2385 1087.9375 2366.4375 557.875 2221.875 C557.19437714 2221.68937559 556.51375429 2221.50375118 555.8125065 2221.31250179 C554.43748483 2220.93749587 553.06246317 2220.56248991 551.68744153 2220.18748391 C548.25027313 2219.25007415 544.81310454 2218.3126651 541.37593555 2217.37525749 C535.18447564 2215.68668059 528.99301708 2213.99809875 522.80156571 2212.30949056 C519.35884098 2211.37054882 515.91611512 2210.43161121 512.47338867 2209.49267578 C511.7919361 2209.30682301 511.11048352 2209.12097023 510.40838087 2208.92948556 C500.86242123 2206.32602173 491.31639906 2203.72278728 481.77033603 2201.11970258 C475.65547002 2199.45225041 469.54062291 2197.78472896 463.42578125 2196.1171875 C462.75199126 2195.93344369 462.07820126 2195.74969989 461.38399339 2195.56038809 C440.96488257 2189.99202513 420.54677537 2184.41999346 400.1292721 2178.84573913 C394.74998764 2177.37714717 389.37063729 2175.90879674 383.99124146 2174.44061279 C383.23938973 2174.23541181 382.48753801 2174.03021082 381.7129029 2173.81879163 C377.95136567 2172.79217519 374.18981938 2171.76559195 370.42826653 2170.73903275 C362.44479561 2168.56022463 354.46154479 2166.38061355 346.47858638 2164.1999284 C341.05328384 2162.71798311 335.62772249 2161.23698792 330.20196897 2159.75669467 C327.08818626 2158.90713561 323.97455517 2158.05702828 320.861166 2157.20602798 C317.45228816 2156.27432392 314.04303343 2155.34401752 310.63354492 2154.41455078 C309.56833209 2154.1238376 308.50311926 2153.83312443 307.40562725 2153.53360176 C302.13275381 2152.10049783 296.85418892 2150.69739402 291.56021118 2149.34417725 C290.00431636 2148.94541791 290.00431636 2148.94541791 288.41698933 2148.53860283 C286.48226034 2148.0451569 284.54626925 2147.55661816 282.60872936 2147.07432747 C260.8891377 2141.54118724 243.49929449 2129.95331816 231.94140625 2110.55078125 C223.6978725 2095.92979726 222.70073107 2081.33248989 222.77294922 2064.95239258 C222.77351426 2063.14783739 222.77319496 2061.34328173 222.77206421 2059.53872681 C222.77149333 2054.66965787 222.78320453 2049.80068865 222.79721212 2044.93164277 C222.80976387 2039.83209385 222.81089347 2034.73254233 222.81326294 2029.63298035 C222.81946469 2019.98955688 222.83585778 2010.34617907 222.85596192 2000.70277566 C222.87836163 1989.71845543 222.88932457 1978.73413296 222.89935279 1967.74979556 C222.92022521 1945.16650511 222.9553757 1922.58325512 223 1900 C222.03460234 1899.81562929 222.03460234 1899.81562929 221.04970169 1899.62753391 C216.05037529 1898.65369983 211.14724846 1897.57456937 206.25292969 1896.15014648 C205.00636597 1895.7895665 203.75980225 1895.42898651 202.47546387 1895.05747986 C201.12424591 1894.66209185 199.77305039 1894.2666272 198.421875 1893.87109375 C196.96856973 1893.44902639 195.51515663 1893.02733019 194.06164551 1892.60597229 C190.11630886 1891.46114144 186.17247947 1890.31119626 182.22889709 1889.16033936 C178.03205726 1887.93655277 173.83382717 1886.71755381 169.63574219 1885.49804688 C162.47648259 1883.41770795 155.31805676 1881.33452179 148.16015625 1879.24951172 C137.88846667 1876.25764678 127.61491511 1873.27221569 117.34083366 1870.28857613 C95.22518266 1863.86605899 73.11188365 1857.4354748 51 1851 C49.9143362 1850.6840387 49.9143362 1850.6840387 48.80673981 1850.36169434 C40.8342031 1848.04141183 32.86192082 1845.72025885 24.89025879 1843.39697266 C22.86467118 1842.80664157 20.83903764 1842.21646804 18.81335449 1841.62646484 C16.13190282 1840.84533288 13.45067434 1840.06344036 10.76953125 1839.28125 C9.62793297 1838.94885315 9.62793297 1838.94885315 8.46327209 1838.60974121 C5.62573727 1837.78107194 2.80470608 1836.93490203 0 1836 C0 1230.12 0 624.24 0 0 Z M66 79 C66 645.61 66 1212.22 66 1796 C91.08 1803.26 116.16 1810.52 142 1818 C175.91372923 1827.88478185 175.91372923 1827.88478185 191.27148438 1832.38183594 C195.4627256 1833.60898589 199.65470446 1834.83358562 203.84719467 1836.05646133 C205.39209478 1836.50762201 206.93671235 1836.95975148 208.48102188 1837.41292953 C210.56233187 1838.02364377 212.64456031 1838.63111853 214.72705078 1839.23779297 C216.48168137 1839.751147 216.48168137 1839.751147 218.27175903 1840.27487183 C220.85165531 1841.08562264 220.85165531 1841.08562264 223 1841 C223.00040018 1839.69044736 223.00080037 1838.38089472 223.00121268 1837.03165867 C223.01493749 1792.19346887 223.02932767 1747.35527928 223.04418945 1702.51708984 C223.04448879 1701.613803 223.04478813 1700.71051616 223.04509654 1699.77985699 C223.07718776 1602.99675948 223.1136558 1506.21366479 223.15898132 1409.43057251 C223.15998695 1407.28089511 223.16099257 1405.13121771 223.16199819 1402.98154031 C223.18311949 1357.85979671 223.20485668 1312.73805344 223.22730538 1267.61631049 C223.23858135 1244.95035161 223.24973897 1222.28439267 223.26078469 1199.61843367 C223.26245159 1196.19934747 223.26412186 1192.78026127 223.26579228 1189.36117506 C223.29148625 1136.70861905 223.31464108 1084.05606342 223.33044434 1031.40350342 C223.3307842 1030.27132381 223.33112406 1029.1391442 223.33147423 1027.97265612 C223.33693846 1009.71843035 223.34218969 991.46420452 223.34741267 973.20997868 C223.36245867 920.635709 223.37907819 868.06144196 223.40612316 815.4871769 C223.40667849 814.40615064 223.40723382 813.32512438 223.40780597 812.21133975 C223.42002474 788.48084472 223.43305358 764.75035021 223.44684957 741.01985604 C223.45238624 731.47166866 223.45780629 721.92348121 223.46318626 712.37529373 C223.46377789 711.33028279 223.46436952 710.28527185 223.46497908 709.20859391 C223.48398706 675.53185577 223.49349922 641.85512315 223.49803595 608.1783802 C223.50264899 574.25757965 223.51656423 540.33679671 223.54342634 506.41600608 C223.54713538 501.729367 223.55073766 497.04272785 223.55427551 492.35608864 C223.5549729 491.43736727 223.55567029 490.5186459 223.55638881 489.5720845 C223.56715847 475.01984257 223.56785998 460.46761821 223.56436801 445.91537344 C223.56114162 431.60866718 223.56855954 417.3019994 223.58732411 402.99530472 C223.59800575 394.60605507 223.60049421 386.21689966 223.59086547 377.82764819 C223.58463162 371.60058518 223.59399378 365.37363736 223.60944067 359.14659244 C223.61323622 356.64213066 223.61200455 354.13765499 223.60515601 351.63319971 C223.54077316 326.07939571 227.12148799 305.70202937 245.1875 286.3125 C258.47450614 273.57247182 276.47875532 266.6899738 294.75 266.5625 C295.53503906 266.52962891 296.32007813 266.49675781 297.12890625 266.46289062 C319.55787324 266.27339858 343.80998149 276.49774323 365.28161621 282.39050293 C370.2215333 283.74537454 375.16256693 285.09616188 380.10351562 286.44726562 C388.05693651 288.6225138 396.0098509 290.79960284 403.96240234 292.97802734 C413.42777576 295.57060595 422.89476071 298.15722153 432.36328125 300.73828125 C433.02267952 300.91803246 433.68207779 301.09778366 434.36145782 301.28298187 C437.61786766 302.17062225 440.87432191 303.05809957 444.13079834 303.94549561 C450.08331466 305.5676512 456.03543015 307.19127659 461.98758698 308.81475067 C465.42644201 309.7526974 468.865322 310.69055259 472.30419922 311.62841797 C473.72955334 312.01715045 475.15490734 312.40588336 476.58026123 312.7946167 C477.30212364 312.99148827 478.02398605 313.18835983 478.76772308 313.3911972 C479.50437447 313.59210213 480.24102585 313.79300705 481 314 C481.75703468 314.206464 482.51406937 314.41292801 483.29404449 314.6256485 C486.86015701 315.59822464 486.86015701 315.59822464 490.42626953 316.57080078 C491.2324 316.79065454 492.03853046 317.01050831 492.86908913 317.23702431 C495.3723615 317.91973495 497.87563388 318.6024456 500.37890625 319.28515625 C501.64483801 319.63041037 501.64483801 319.63041037 502.93634415 319.98263931 C506.43462563 320.93671608 509.9329071 321.89079285 513.43118858 322.84486961 C514.31857531 323.08688417 515.20596203 323.32889874 516.12023926 323.57824707 C518.84802755 324.32218933 521.57581584 325.06613159 524.30360413 325.81007385 C525.21448288 326.05849533 526.12536163 326.30691681 527.06384277 326.56286621 C529.87616285 327.32986259 532.68848292 328.09685898 535.50080299 328.86385536 C536.44841185 329.12229414 537.3960207 329.38073292 538.37234497 329.64700317 C539.32995853 329.90817051 540.2875721 330.16933784 541.27420425 330.43841934 C542.24203716 330.70237377 543.20987007 330.9663282 544.20703125 331.23828125 C559.96212769 335.53512573 559.96212769 335.53512573 575.71722412 339.83197021 C576.85015207 340.14095057 577.98308002 340.44993092 579.15033913 340.76827431 C585.06246567 342.38067245 590.97459221 343.9930706 596.88671875 345.60546875 C598.08818417 345.93314114 599.28964958 346.26081352 600.52752304 346.59841537 C602.34330542 347.09362875 602.34330542 347.09362875 604.19577026 347.59884644 C606.02520959 348.09778443 606.02520959 348.09778443 607.89160728 348.60680199 C617.32080364 351.17840099 617.32080364 351.17840099 626.75 353.75 C628.01459549 354.09488968 629.27919098 354.43977936 630.58210754 354.79512024 C631.85257431 355.14161118 633.12304108 355.48810211 634.43200684 355.84509277 C635.06953498 356.01896409 635.70706313 356.1928354 636.36391032 356.37197554 C637.00293485 356.54625496 637.64195937 356.72053437 638.30034828 356.90009499 C639.26107966 357.16211264 639.26107966 357.16211264 640.24121976 357.42942357 C642.84370395 358.13919199 645.44618813 358.8489604 648.04867232 359.55872881 C649.0201235 359.82367004 649.0201235 359.82367004 650.01119995 360.09396362 C651.32360713 360.45189285 652.6360143 360.80982208 653.94842148 361.16775131 C654.60010725 361.34548379 655.25179301 361.52321628 655.92322683 361.70633459 C657.24420468 362.06660128 658.56518253 362.42686796 659.88616037 362.78713465 C660.54216651 362.96604541 661.19817266 363.14495618 661.87405777 363.32928848 C665.20396193 364.23744416 668.53386609 365.14559984 671.86377025 366.05375552 C672.52602587 366.23437069 673.18828149 366.41498586 673.87060547 366.60107422 C676.55458577 367.33306885 679.23856608 368.06506348 681.92254639 368.79705811 C682.5884642 368.97867206 683.25438202 369.160286 683.94047916 369.34740341 C684.60681499 369.52913136 685.27315082 369.71085932 685.95967865 369.89809418 C686.62632129 370.07990581 687.29296392 370.26171743 687.97980785 370.44903851 C696.06313741 372.65358293 696.06313741 372.65358293 704.14646697 374.85812736 C705.14928564 375.13162336 705.14928564 375.13162336 706.17236328 375.41064453 C706.84155297 375.59315081 707.51074265 375.77565709 708.20021081 375.96369386 C708.86996997 376.14635545 709.53972912 376.32901703 710.22978401 376.51721382 C712.94122823 377.25669861 715.65267245 377.9961834 718.36411667 378.73566818 C719.03656654 378.9190636 719.70901641 379.10245902 720.40184355 379.29141188 C721.07489924 379.47497252 721.74795493 379.65853316 722.44140625 379.84765625 C723.4519868 380.12326913 723.4519868 380.12326913 724.48298311 380.40444994 C725.84585925 380.77614343 727.20873539 381.14783692 728.57161152 381.51953042 C729.24710478 381.70375585 729.92259804 381.88798128 730.61856079 382.07778931 C731.29462525 382.26217052 731.97068971 382.44655174 732.66724098 382.63652027 C733.34386193 382.82105325 734.02048288 383.00558624 734.7176075 383.19571114 C736.77113907 383.7557652 738.82467063 384.31581926 740.8782022 384.87587333 C741.55686347 385.06096277 742.23552474 385.2460522 742.93475151 385.43675041 C744.30753454 385.81114578 745.68031756 386.18554115 747.05310059 386.55993652 C747.73348802 386.74549673 748.41387545 386.93105694 749.11488068 387.12224019 C752.56229981 388.0624454 756.00971893 389.00265062 759.45713806 389.94285583 C760.14199819 390.12963587 760.82685831 390.3164159 761.53247178 390.50885594 C764.30453618 391.2648735 767.07660059 392.02089107 769.848665 392.77690864 C770.53572469 392.96428855 771.22278438 393.15166847 771.93066406 393.34472656 C774.01416806 393.91295493 776.09767207 394.48118329 778.18117607 395.04941165 C778.8692557 395.23706974 779.55733534 395.42472782 780.26626587 395.61807251 C782.35271724 396.1871047 784.43916861 396.75613689 786.52561998 397.32516909 C787.2145482 397.5130586 787.90347642 397.70094811 788.61328125 397.89453125 C792.09459666 398.84398091 795.57591208 399.79343057 799.05722749 400.74288023 C800.09114623 401.02485806 800.09114623 401.02485806 801.14595222 401.31253242 C802.53821945 401.69224167 803.93048668 402.07195091 805.32275391 402.45166016 C806.01187166 402.63960136 806.70098941 402.82754257 807.41098952 403.02117896 C809.49780893 403.59031153 811.58462834 404.15944409 813.67144775 404.72857666 C814.70346595 405.01003617 814.70346595 405.01003617 815.75633299 405.29718173 C816.44383364 405.4846819 817.13133428 405.67218208 817.83966827 405.86536407 C818.52656266 406.05269891 819.21345705 406.24003374 819.92116642 406.43304539 C822.68647128 407.18721944 825.45177615 407.94139349 828.21708101 408.69556755 C828.89968683 408.88173277 829.58229265 409.067898 830.2855835 409.25970459 C833.72776441 410.1984812 837.16994532 411.13725781 840.61212623 412.07603443 C841.29298101 412.26172209 841.97383579 412.44740976 842.67532253 412.63872433 C844.7375865 413.20115995 844.7375865 413.20115995 846.79985046 413.76359558 C847.4800819 413.94911324 848.16031333 414.13463091 848.86115783 414.32577032 C850.23495821 414.70044315 851.60875859 415.07511598 852.98255897 415.44978881 C853.66249419 415.63522569 854.34242942 415.82066257 855.04296875 416.01171875 C856.41667493 416.38636589 857.79038111 416.76101303 859.1640873 417.13566017 C860.18398397 417.41381381 860.18398397 417.41381381 861.22448462 417.69758672 C863.97117686 418.4466846 866.7178691 419.19578248 869.46456134 419.94488037 C870.14423217 420.13024514 870.82390301 420.31560991 871.52416992 420.5065918 C873.58341265 421.06820345 873.58341265 421.06820345 875.64265537 421.6298151 C876.32218795 421.81514217 877.00172052 422.00046923 877.70184499 422.19141227 C879.76111722 422.75303197 879.76111722 422.75303197 881.82038945 423.31465167 C882.50003107 423.50000847 883.17967269 423.68536528 883.87990952 423.87633896 C886.97052026 424.7192328 886.97052026 424.7192328 890.061131 425.56212664 C891.08164529 425.84044872 891.08164529 425.84044872 892.12277603 426.12439346 C896.24762217 427.2493515 900.37246831 428.37430954 904.49731445 429.49926758 C905.17801951 429.68491441 905.85872456 429.87056124 906.56005704 430.06183374 C909.65427321 430.90571088 909.65427321 430.90571088 912.74848938 431.74958801 C913.76962842 432.02808048 913.76962842 432.02808048 914.81139654 432.31219906 C916.87426436 432.87479937 918.93713218 433.43739969 921 434 C921.68067087 434.18563751 922.36134174 434.37127502 923.062639 434.56253791 C924.43765757 434.93754297 925.81267615 435.31254804 927.18769473 435.68755311 C927.86831086 435.87317569 928.54892699 436.05879827 929.25016785 436.25004578 C932.0001119 437.00003052 934.75005595 437.75001526 937.5 438.5 C938.18062111 438.68562394 938.86124221 438.87124788 939.5624882 439.06249678 C941.62499213 439.62499785 943.68749607 440.18749893 945.75 440.75 C946.43062522 440.93562506 947.11125043 441.12125012 947.81250066 441.31250018 C1049.90625033 469.15625009 1049.90625033 469.15625009 1356.18749934 552.68749982 C1356.86812456 552.87312488 1357.54874978 553.05874994 1358.25 553.25 C1359.6250035 553.62500095 1361.00000699 554.00000191 1362.37501049 554.37500286 C1363.05563592 554.56062798 1363.73626136 554.7462531 1364.4375118 554.93750322 C1366.49998426 555.49999571 1366.49998426 555.49999571 1368.56245673 556.0624882 C1369.58336891 556.34091879 1369.58336891 556.34091879 1370.62490559 556.62497425 C1374.06239072 557.5624702 1377.49987586 558.49996614 1380.937361 559.43746209 C1381.61803187 559.6230996 1382.29870274 559.80873711 1383 560 C1384.37523079 560.37506294 1385.75046158 560.75012589 1387.12569237 561.12518883 C1387.80645303 561.31085083 1388.48721369 561.49651282 1389.18860346 561.68780094 C1390.56385567 562.06286973 1391.93910788 562.43793851 1393.31436008 562.8130073 C1393.99508786 562.99866032 1394.67581563 563.18431335 1395.37717152 563.37559223 C1400.877189 564.875597 1406.37720648 566.37560177 1411.87722397 567.87560654 C1412.55756683 568.06115459 1413.23790969 568.24670264 1413.938869 568.43787336 C1414.61904223 568.62337515 1415.29921546 568.80887694 1416 569 C1416.67989628 569.18542626 1417.35979257 569.37085252 1418.06029177 569.56189775 C1420.80624618 570.31079441 1423.5522006 571.05969107 1426.29815501 571.80858773 C1426.97768758 571.9939148 1427.65722016 572.17924186 1428.35734463 572.3701849 C1429.03687439 572.5555112 1429.71640415 572.7408375 1430.41652572 572.93177974 C1431.09609616 573.11711713 1431.7756666 573.30245453 1432.47583008 573.4934082 C1433.84896628 573.86789989 1435.22210248 574.24239159 1436.59523869 574.61688328 C1437.27501575 574.80227702 1437.95479282 574.98767077 1438.65516919 575.17868251 C1441.402264 575.92789018 1444.14935881 576.67709786 1446.89645362 577.42630553 C1447.91643955 577.70448351 1447.91643955 577.70448351 1448.95703125 577.98828125 C1451.01763489 578.55026406 1453.07823853 579.11224687 1455.13884217 579.67422968 C1455.8190736 579.85974734 1456.49930503 580.04526501 1457.20014954 580.23640442 C1459.2624135 580.79884005 1459.2624135 580.79884005 1461.32467747 581.36127567 C1462.00553225 581.54696334 1462.68638703 581.73265101 1463.38787377 581.92396557 C1464.76387473 582.29923856 1466.13987569 582.67451155 1467.51587665 583.04978454 C1468.19733725 583.23563743 1468.87879785 583.42149032 1469.58090878 583.61297512 C1474.41355038 584.93096828 1479.24619198 586.24896145 1484.07883358 587.56695461 C1485.4671097 587.94557537 1486.85538582 588.32419612 1488.24366194 588.70281684 C1489.63393455 589.08198213 1491.02420713 589.46114755 1492.41447967 589.84031308 C1495.89409174 590.78929876 1499.37370439 591.73828233 1502.85331821 592.68726158 C1509.12103777 594.39663042 1515.3887533 596.10601399 1521.65644723 597.81547678 C1525.13432461 598.76403921 1528.61220536 599.71258929 1532.09008789 600.66113281 C1532.77779294 600.84869495 1533.46549799 601.03625708 1534.17404258 601.22950292 C1543.76910387 603.84639848 1553.36435114 606.46261112 1562.95972383 609.07836461 C1569.04871257 610.73828504 1575.13764565 612.39840964 1581.2265625 614.05859375 C1582.22815096 614.33167728 1582.22815096 614.33167728 1583.24997354 614.61027765 C1603.01003222 619.99796096 1622.76717843 625.39621631 1642.52231735 630.80190998 C1647.5733065 632.18396843 1652.62448415 633.56533612 1657.67579651 634.94621277 C1658.37714511 635.1379412 1659.07849372 635.32966964 1659.80109531 635.52720803 C1663.29657063 636.48274161 1666.79207155 637.43818152 1670.28759098 638.39355373 C1677.72655274 640.42688057 1685.1648421 642.46263483 1692.60228777 644.50150031 C1698.20348588 646.03676141 1703.80573582 647.56815755 1709.40839005 649.09809685 C1711.70276485 649.72533861 1713.99677577 650.35391309 1716.29040146 650.98388863 C1719.40823752 651.84007278 1722.52730228 652.69162317 1725.64672852 653.54199219 C1726.56033992 653.79410052 1727.47395132 654.04620886 1728.41524792 654.30595684 C1729.24638764 654.53150659 1730.07752737 654.75705633 1730.93385315 654.98944092 C1732.01098241 655.28433474 1732.01098241 655.28433474 1733.10987186 655.585186 C1735.16585864 656.10718092 1735.16585864 656.10718092 1738 656 C1738 625.64 1738 595.28 1738 564 C1724.13801769 559.78113582 1710.28255482 555.58269794 1696.3671875 551.55078125 C1694.66244979 551.05564037 1692.95774919 550.56037171 1691.25308228 550.06498718 C1686.73174071 548.75146163 1682.20987639 547.43974484 1677.68789673 546.12841797 C1672.89122756 544.73708052 1668.09506531 543.34399758 1663.29882812 541.95117188 C1638.30212524 534.69309442 1613.30203513 527.44667287 1588.30082512 520.20413685 C1563.60401995 513.04961288 1538.91375701 505.87265951 1514.2243042 498.69281006 C1490.00980869 491.6511412 1465.79327064 484.61664531 1441.57149124 477.60007095 C1415.39779739 470.018058 1389.22871287 462.42029097 1363.0625 454.8125 C1361.71411482 454.42046576 1361.71411482 454.42046576 1360.33848953 454.02051163 C1345.6335204 449.74511599 1330.9287707 445.46896586 1316.2240448 441.19273376 C1302.46196529 437.19063803 1288.69981019 433.18880241 1274.9375 429.1875 C1274.03720692 428.925741 1273.13691383 428.66398201 1272.20933914 428.39429092 C1246.26223058 420.85029993 1220.31164983 413.31840652 1194.35714722 405.79989624 C1168.97588173 398.44728922 1143.60104533 391.07265699 1118.22742844 383.6937027 C1093.17601295 376.40847357 1068.12177725 369.13313972 1043.0625 361.875 C1017.69342296 354.52713023 992.33254151 347.15138268 966.97483063 339.76438904 C943.30054251 332.86788974 919.62237337 325.98505899 895.9375 319.125 C869.95374117 311.59909452 843.97559972 304.05401817 818 296.5 C792.860306 289.18915226 767.71878189 281.88474776 742.57149124 274.60007095 C716.39779739 267.018058 690.22871287 259.42029097 664.0625 251.8125 C663.16357655 251.55114384 662.26465309 251.28978767 661.33848953 251.02051163 C646.6335204 246.74511599 631.9287707 242.46896586 617.2240448 238.19273376 C603.46196529 234.19063803 589.69981019 230.18880241 575.9375 226.1875 C575.03720692 225.925741 574.13691383 225.66398201 573.20933914 225.39429092 C547.26223058 217.85029993 521.31164983 210.31840652 495.35714722 202.79989624 C469.97484129 195.44698782 444.5990002 188.07193257 419.2243042 180.69281006 C395.00980869 173.6511412 370.79327064 166.61664531 346.57149124 159.60007095 C320.39779739 152.018058 294.22871287 144.42029097 268.0625 136.8125 C267.16357655 136.55114384 266.26465309 136.28978767 265.33848953 136.02051163 C250.6335204 131.74511599 235.9287707 127.46896586 221.2240448 123.19273376 C215.68201049 121.58107676 210.13996914 119.96944399 204.59791565 118.35785294 C202.75749046 117.82266916 200.91706687 117.28747985 199.0766449 116.752285 C189.13180105 113.8603509 179.18676943 110.96906535 169.24121094 108.07958984 C168.36646622 107.82544374 167.4917215 107.57129765 166.59046936 107.30945015 C165.71873581 107.05617895 164.84700226 106.80290775 163.94885254 106.54196167 C163.08027115 106.28960629 162.21168976 106.0372509 161.31678772 105.77724838 C159.57345567 105.27075401 157.8301187 104.76427657 156.08677673 104.25781631 C145.72248827 101.24675124 135.35942081 98.23155071 124.99830151 95.20959759 C118.41424042 93.28931711 111.82946497 91.37150185 105.24413013 89.45559406 C100.6886166 88.13003758 96.13409546 86.80114277 91.58031082 85.46965981 C88.81831213 84.66298758 86.05535723 83.8596329 83.29210281 83.05727386 C81.41556877 82.51130652 79.5402092 81.9613075 77.66488647 81.41119385 C76.55771271 81.09043884 75.45053894 80.76968384 74.30981445 80.43920898 C73.35009232 80.15931625 72.39037018 79.87942352 71.40156555 79.59104919 C68.92669227 78.88051057 68.92669227 78.88051057 66 79 Z " fill="#EBAB56" transform="translate(20,19)"/>
<path d="M0 0 C130.85798282 35.0512454 130.85798282 35.0512454 146.953125 62.06640625 C154.07536199 75.00957431 156.15528092 88.52538427 156.1276505 103.07318068 C156.13012667 104.90667711 156.13012667 104.90667711 156.13265286 106.77721387 C156.13623018 110.17856539 156.13532482 113.5798627 156.13255108 116.98121146 C156.13062884 120.69220587 156.13451067 124.403195 156.13764787 128.11418796 C156.14236389 134.64610875 156.14334548 141.17802197 156.14191952 147.70994419 C156.13980048 157.48860811 156.14340878 167.26726418 156.1481343 177.04592689 C156.156013 193.71046324 156.15909661 210.37499745 156.15958023 227.03953552 C156.16008231 243.93298446 156.16272606 260.826431 156.16798782 277.71987915 C156.16831796 278.78596926 156.16864809 279.85205937 156.16898823 280.95045524 C156.1703382 285.29232449 156.17170086 289.63419374 156.17308033 293.97606298 C156.18939089 345.40463447 156.19576989 396.8332055 156.2005282 448.26177913 C156.20291051 473.86511131 156.2066138 499.46844323 156.2105653 525.07177521 C156.22323021 607.1778918 156.23401428 689.28400838 156.23740576 771.39012593 C156.237568 775.31510225 156.23773356 779.24007857 156.23790014 783.16505489 C156.23823394 791.03679806 156.23856443 798.90854123 156.2388947 806.7802844 C156.2392816 815.99639424 156.23967121 825.21250407 156.24006577 834.4286139 C156.24017818 837.06635001 156.2402896 839.70408613 156.24040002 842.34182224 C156.24395002 927.07007841 156.25903049 1011.79832611 156.28233776 1096.52657905 C156.29907667 1157.40169383 156.31455328 1218.27680702 156.31907272 1279.15192413 C156.31921295 1281.02934068 156.31921295 1281.02934068 156.31935601 1282.94468483 C156.32137495 1310.41914547 156.32253109 1337.89360609 156.3228846 1365.36806681 C156.32302078 1375.19872132 156.32322977 1385.02937583 156.32347785 1394.86003033 C156.32353941 1397.30570696 156.32359773 1399.75138359 156.3236528 1402.19706022 C156.32457303 1441.18541694 156.33454621 1480.17376482 156.34911029 1519.16211864 C156.36371895 1558.42688025 156.36877265 1597.69163101 156.36069075 1636.95639486 C156.35957535 1642.38056734 156.35856469 1647.80473984 156.35761642 1653.22891235 C156.35742646 1654.29221243 156.35723649 1655.3555125 156.35704076 1656.45103379 C156.35430567 1673.29661837 156.36165374 1690.14218289 156.37318979 1706.98776311 C156.38432036 1723.54685312 156.38477208 1740.10591474 156.37381961 1756.66500518 C156.36771765 1766.37620659 156.36983261 1776.08732238 156.38407158 1785.79851575 C156.39270925 1792.24834076 156.39046175 1798.69810278 156.37937287 1805.14792389 C156.37339153 1808.80400412 156.37201027 1812.45991653 156.38405773 1816.1159856 C156.46512133 1842.47277238 154.34433282 1865.48144148 135.40234375 1885.62109375 C121.05329824 1899.83014857 103.40178763 1907.15571535 83.3125 1907.5625 C76.81084562 1907.44521165 70.72921967 1906.75249389 64.4296875 1905.1640625 C63.56208298 1904.95130173 62.69447845 1904.73854095 61.80058289 1904.51933289 C45.70170086 1900.49911091 29.71887273 1896.00073405 13.71838379 1891.60949707 C8.7784667 1890.25462546 3.83743307 1888.90383812 -1.10351562 1887.55273438 C-9.05693651 1885.3774862 -17.0098509 1883.20039716 -24.96240234 1881.02197266 C-34.42777575 1878.42939406 -43.89475883 1875.84277153 -53.36328125 1873.26171875 C-54.35216056 1872.99215425 -54.35216056 1872.99215425 -55.36101723 1872.71714401 C-58.61693426 1871.82964919 -61.8728953 1870.94231593 -65.12887573 1870.05505371 C-69.06791927 1868.98158788 -73.00676195 1867.90738632 -76.94555664 1866.83300781 C-77.60947009 1866.65191404 -78.27338354 1866.47082027 -78.95741558 1866.28423882 C-80.30909768 1865.9155415 -81.66077939 1865.54684273 -83.01246071 1865.17814255 C-94.06226018 1862.16413963 -105.11243297 1859.15150795 -116.1628418 1856.13973999 C-158.49315381 1844.6026265 -200.81773775 1833.04469977 -243.13751221 1821.46899414 C-290.00368352 1808.64972507 -336.87358227 1795.84425361 -383.75 1783.0625 C-384.77077228 1782.78416541 -384.77077228 1782.78416541 -385.81216621 1782.5002079 C-398.92403258 1778.92499987 -412.03598207 1775.35009671 -425.14801025 1771.77548218 C-444.43750536 1766.51674986 -463.72668844 1761.25687443 -483.015625 1755.99609375 C-483.69601932 1755.81052642 -484.37641363 1755.62495909 -485.07742596 1755.43376851 C-491.26209471 1753.7469921 -497.44675994 1752.06020277 -503.63142014 1750.37339497 C-513.25393637 1747.74894464 -522.8764723 1745.12456651 -532.49902344 1742.50024414 C-533.17967755 1742.31461186 -533.86033166 1742.12897959 -534.56161165 1741.93772209 C-537.99932357 1741.00016803 -541.43703582 1740.06261521 -544.87474823 1739.12506294 C-551.06233931 1737.43754766 -557.2499274 1735.75002142 -563.43751574 1734.06249607 C-566.87501037 1733.12499693 -570.31250519 1732.1874985 -573.75 1731.25 C-575.125 1730.875 -576.5 1730.5 -577.875 1730.125 C-578.555625 1729.939375 -579.23625 1729.75375 -579.9375 1729.5625 C-648 1711 -716.0625 1692.4375 -1246.125 1547.875 C-1246.80562286 1547.68937559 -1247.48624571 1547.50375118 -1248.1874935 1547.31250179 C-1249.56251517 1546.93749587 -1250.93753683 1546.56248991 -1252.31255847 1546.18748391 C-1255.74972687 1545.25007415 -1259.18689546 1544.3126651 -1262.62406445 1543.37525749 C-1268.81552436 1541.68668059 -1275.00698292 1539.99809875 -1281.19843429 1538.30949056 C-1284.64115902 1537.37054882 -1288.08388488 1536.43161121 -1291.52661133 1535.49267578 C-1292.2080639 1535.30682301 -1292.88951648 1535.12097023 -1293.59161913 1534.92948556 C-1303.13757877 1532.32602173 -1312.68360094 1529.72278728 -1322.22966397 1527.11970258 C-1328.34452998 1525.45225041 -1334.45937709 1523.78472896 -1340.57421875 1522.1171875 C-1341.58490374 1521.84157179 -1341.58490374 1521.84157179 -1342.61600661 1521.56038809 C-1363.03511743 1515.99202513 -1383.45322463 1510.41999346 -1403.8707279 1504.84573913 C-1409.25001236 1503.37714717 -1414.62936271 1501.90879674 -1420.00875854 1500.44061279 C-1420.76061027 1500.23541181 -1421.51246199 1500.03021082 -1422.2870971 1499.81879163 C-1426.04863433 1498.79217519 -1429.81018062 1497.76559195 -1433.57173347 1496.73903275 C-1441.55520439 1494.56022463 -1449.53845521 1492.38061355 -1457.52141362 1490.1999284 C-1462.94671616 1488.71798311 -1468.37227751 1487.23698792 -1473.79803103 1485.75669467 C-1476.91181374 1484.90713561 -1480.02544483 1484.05702828 -1483.138834 1483.20602798 C-1486.54771184 1482.27432392 -1489.95696657 1481.34401752 -1493.36645508 1480.41455078 C-1494.43166791 1480.1238376 -1495.49688074 1479.83312443 -1496.59437275 1479.53360176 C-1501.86724619 1478.10049783 -1507.14581108 1476.69739402 -1512.43978882 1475.34417725 C-1513.99568364 1474.94541791 -1513.99568364 1474.94541791 -1515.58301067 1474.53860283 C-1517.51773966 1474.0451569 -1519.45373075 1473.55661816 -1521.39127064 1473.07432747 C-1543.1108623 1467.54118724 -1560.50070551 1455.95331816 -1572.05859375 1436.55078125 C-1580.3021275 1421.92979726 -1581.29926893 1407.33248989 -1581.22705078 1390.95239258 C-1581.22648574 1389.14783739 -1581.22680504 1387.34328173 -1581.22793579 1385.53872681 C-1581.22850667 1380.66965787 -1581.21679547 1375.80068865 -1581.20278788 1370.93164277 C-1581.19023613 1365.83209385 -1581.18910653 1360.73254233 -1581.18673706 1355.63298035 C-1581.18053531 1345.98955688 -1581.16414222 1336.34617907 -1581.14403808 1326.70277566 C-1581.12163837 1315.71845543 -1581.11067543 1304.73413296 -1581.10064721 1293.74979556 C-1581.07977479 1271.16650511 -1581.0446243 1248.58325512 -1581 1226 C-1579.11811907 1226.46522197 -1577.2365982 1226.93190049 -1575.35522461 1227.39916992 C-1574.30741318 1227.65889084 -1573.25960175 1227.91861176 -1572.18003845 1228.186203 C-1567.27187904 1229.44223983 -1562.41921545 1230.87235884 -1557.5625 1232.3125 C-1555.45848147 1232.93149334 -1553.35431183 1233.54997323 -1551.25 1234.16796875 C-1549.68185547 1234.62888916 -1549.68185547 1234.62888916 -1548.08203125 1235.09912109 C-1543.41514398 1236.46325402 -1538.73930553 1237.79534554 -1534.0625 1239.125 C-1526.54968204 1241.26413414 -1519.0503884 1243.4447693 -1511.55859375 1245.65625 C-1497.53657396 1249.79420353 -1483.4965337 1253.86876064 -1469.43579102 1257.87304688 C-1462.79939854 1259.76537436 -1456.17712654 1261.70254489 -1449.55859375 1263.65625 C-1435.53657396 1267.79420353 -1421.4965337 1271.86876064 -1407.43579102 1275.87304688 C-1400.79939854 1277.76537436 -1394.17712654 1279.70254489 -1387.55859375 1281.65625 C-1374.70088285 1285.45061137 -1361.83094787 1289.20386065 -1348.9375 1292.875 C-1336.28952008 1296.47651655 -1323.66382312 1300.15481152 -1311.03613281 1303.82666016 C-1305.1670902 1305.53308951 -1299.29723922 1307.23673395 -1293.4274292 1308.94052124 C-1290.20158449 1309.87689369 -1286.97579512 1310.81345673 -1283.75 1311.75 C-1282.4583336 1312.12500091 -1281.16666693 1312.50000091 -1279.875 1312.875 C-1179.12500002 1342.125 -1179.12500002 1342.125 -1177.18756104 1342.68748474 C-1175.89569268 1343.06254166 -1174.60382256 1343.43759252 -1173.31195068 1343.81263733 C-1170.0858555 1344.74921693 -1166.85979077 1345.68590118 -1163.63378906 1346.62280273 C-1157.78475006 1348.32137983 -1151.93548405 1350.0191555 -1146.08509827 1351.71308899 C-1131.71448442 1355.87407542 -1117.35450341 1360.06814562 -1103.01342773 1364.33007812 C-1096.57888357 1366.24089889 -1090.13824411 1368.12117342 -1083.6796875 1369.94921875 C-1078.59236111 1371.40196907 -1073.51549402 1372.8900088 -1068.4375 1374.375 C-1060.65300751 1376.65064475 -1052.86289473 1378.90447606 -1045.0625 1381.125 C-1038.24790217 1383.06560182 -1031.44241763 1385.03343961 -1024.64697266 1387.04003906 C-1015.48030904 1389.74677303 -1006.30225603 1392.41446772 -997.12597656 1395.08837891 C-994.0393106 1395.98853594 -990.95316805 1396.890465 -987.8671875 1397.79296875 C-977.39879155 1400.85319448 -966.92354038 1403.88629019 -956.43408203 1406.87353516 C-949.79825875 1408.76569782 -943.1765582 1410.70271266 -936.55859375 1412.65625 C-922.53657396 1416.79420353 -908.4965337 1420.86876064 -894.43579102 1424.87304688 C-887.79939854 1426.76537436 -881.17712654 1428.70254489 -874.55859375 1430.65625 C-860.53657396 1434.79420353 -846.4965337 1438.86876064 -832.43579102 1442.87304688 C-825.79939854 1444.76537436 -819.17712654 1446.70254489 -812.55859375 1448.65625 C-798.53657396 1452.79420353 -784.4965337 1456.86876064 -770.43579102 1460.87304688 C-763.79939854 1462.76537436 -757.17712654 1464.70254489 -750.55859375 1466.65625 C-736.53657396 1470.79420353 -722.4965337 1474.86876064 -708.43579102 1478.87304688 C-702.49742715 1480.56633569 -696.56921457 1482.29128421 -690.64697266 1484.04003906 C-681.48030904 1486.74677303 -672.30225603 1489.41446772 -663.12597656 1492.08837891 C-660.0393106 1492.98853594 -656.95316805 1493.890465 -653.8671875 1494.79296875 C-643.39879155 1497.85319448 -632.92354038 1500.88629019 -622.43408203 1503.87353516 C-615.79825875 1505.76569782 -609.1765582 1507.70271266 -602.55859375 1509.65625 C-588.53657396 1513.79420353 -574.4965337 1517.86876064 -560.43579102 1521.87304688 C-553.79939854 1523.76537436 -547.17712654 1525.70254489 -540.55859375 1527.65625 C-526.53657396 1531.79420353 -512.4965337 1535.86876064 -498.43579102 1539.87304688 C-491.79939854 1541.76537436 -485.17712654 1543.70254489 -478.55859375 1545.65625 C-464.53657396 1549.79420353 -450.4965337 1553.86876064 -436.43579102 1557.87304688 C-429.79939854 1559.76537436 -423.17712654 1561.70254489 -416.55859375 1563.65625 C-402.53657396 1567.79420353 -388.4965337 1571.86876064 -374.43579102 1575.87304688 C-367.79939854 1577.76537436 -361.17712654 1579.70254489 -354.55859375 1581.65625 C-341.70088033 1585.45061211 -328.8309009 1589.20368886 -315.9375 1592.875 C-295.32257542 1598.74770662 -274.75138058 1604.77052244 -254.19110107 1610.83126831 C-244.78061152 1613.60458291 -235.36185564 1616.34545289 -225.92456055 1619.02636719 C-219.45753803 1620.86416298 -213.00658106 1622.75292391 -206.55859375 1624.65625 C-192.63858617 1628.76409932 -178.70464407 1632.82508643 -164.74121094 1636.78295898 C-159.67722165 1638.22185749 -154.62383042 1639.69511254 -149.57421875 1641.18359375 C-138.51471142 1644.44335791 -127.44352174 1647.66294196 -116.37255859 1650.88354492 C-112.77034779 1651.93157997 -109.16837237 1652.98042123 -105.56640625 1654.02929688 C-93.98028551 1657.40126891 -82.39111834 1660.76121891 -70.784729 1664.06285095 C-64.36989832 1665.88819542 -57.97041547 1667.76274231 -51.57421875 1669.65234375 C-46.0534318 1671.2817727 -40.52645795 1672.88993297 -35 1674.5 C-30.99989752 1675.66631546 -26.99992357 1676.83307112 -23 1678 C-22.13084961 1678.25346191 -21.26169922 1678.50692383 -20.36621094 1678.76806641 C-18.03544033 1679.44829724 -15.7051371 1680.13010271 -13.375 1680.8125 C-12.70726562 1681.00714844 -12.03953125 1681.20179687 -11.3515625 1681.40234375 C-7.5332414 1682.52259498 -3.7789347 1683.7403551 0 1685 C0 1128.95 0 572.9 0 0 Z " fill="#EBAB56" transform="translate(1824,693)"/>
<path d="M0 0 C13.49850036 3.37462509 13.49850036 3.37462509 19.40820312 5.1027832 C20.3860955 5.3876786 20.3860955 5.3876786 21.38374329 5.67832947 C23.5168773 6.30033906 25.6490549 6.92556149 27.78125 7.55078125 C29.32533415 8.00162007 30.86948482 8.45223114 32.41369629 8.90263367 C35.71480448 9.86588337 39.0155175 10.83047079 42.31591797 11.79614258 C50.32247904 14.13865201 58.33116056 16.47389708 66.33963013 18.80987167 C69.10920347 19.61778921 71.87870008 20.42596942 74.64819336 21.23416138 C91.98137804 26.29127844 109.32489389 31.31240841 126.67054367 36.32657242 C153.43462833 44.06385969 180.18965229 51.83177095 206.9375 59.625 C231.30759019 66.72535391 255.68116205 73.8133609 280.0625 80.875 C306.97028806 88.66846864 333.87185576 96.48318138 360.77115631 104.30589294 C385.82303661 111.59128064 410.87775154 118.8667238 435.9375 126.125 C461.30657704 133.47286977 486.66745849 140.84861732 512.02516937 148.23561096 C535.69945749 155.13211026 559.37762663 162.01494101 583.0625 168.875 C609.97026896 176.6685347 636.87185568 184.48318136 663.77115631 192.30589294 C688.82303661 199.59128064 713.87775154 206.8667238 738.9375 214.125 C764.30657704 221.47286977 789.66745849 228.84861732 815.02516937 236.23561096 C838.69945749 243.13211026 862.37762663 250.01494101 886.0625 256.875 C912.97026896 264.6685347 939.87185568 272.48318136 966.77115631 280.30589294 C991.82303661 287.59128064 1016.87775154 294.8667238 1041.9375 302.125 C1067.30657704 309.47286977 1092.66745849 316.84861732 1118.02516937 324.23561096 C1141.69945749 331.13211026 1165.37762663 338.01494101 1189.0625 344.875 C1215.97026896 352.6685347 1242.87185568 360.48318136 1269.77115631 368.30589294 C1294.82303661 375.59128064 1319.87775154 382.8667238 1344.9375 390.125 C1370.30657704 397.47286977 1395.66745849 404.84861732 1421.02516937 412.23561096 C1444.69945779 419.13211034 1468.37767311 426.01477999 1492.0625 432.875 C1517.69155215 440.29858462 1543.31598803 447.7379322 1568.9375 455.1875 C1570.75325515 455.71542378 1572.56901036 456.24334736 1574.38476562 456.77127075 C1588.18196345 460.78280627 1601.97896687 464.79501026 1615.7759552 468.80726624 C1628.63354867 472.54633198 1641.49120973 476.28516513 1654.34900284 480.02354431 C1657.05383339 480.80998016 1659.75865245 481.59645557 1662.46347046 482.38293457 C1681.15444163 487.81755954 1699.84657091 493.24813272 1718.54296875 498.6640625 C1719.71442538 499.00343747 1719.71442538 499.00343747 1720.90954781 499.3496685 C1728.23181697 501.47093267 1735.55421564 503.59174575 1742.87732029 505.71012402 C1756.76400024 509.72752444 1770.64599711 513.76093662 1784.51844025 517.8272419 C1786.04846236 518.27548983 1787.57866757 518.72311335 1789.10906219 519.17008781 C1791.22853263 519.78934584 1793.34726879 520.41105395 1795.46582031 521.03344727 C1796.68086243 521.38947525 1797.89590454 521.74550323 1799.14776611 522.11231995 C1802 523 1802 523 1804 524 C1804 1129.55 1804 1735.1 1804 2359 C1793.86820505 2356.74849001 1793.86820505 2356.74849001 1789.6796875 2355.51953125 C1788.74431152 2355.24616943 1787.80893555 2354.97280762 1786.84521484 2354.69116211 C1785.86504395 2354.40120361 1784.88487305 2354.11124512 1783.875 2353.8125 C1782.83166504 2353.50642822 1781.78833008 2353.20035645 1780.71337891 2352.88500977 C1773.58486769 2350.78614864 1766.47786288 2348.62126353 1759.375 2346.4375 C1751.0580554 2343.88263084 1742.7058337 2341.51747635 1734.30419922 2339.25830078 C1725.83367234 2336.97449976 1717.41727686 2334.52249486 1709 2332.05078125 C1701.17253309 2329.75273504 1693.33548655 2327.48802881 1685.49859619 2325.22238159 C1671.25182913 2321.1034278 1657.0092328 2316.97063324 1642.77441406 2312.81054688 C1636.85134449 2311.08011824 1630.92717113 2309.3534701 1625.00317383 2307.6262207 C1619.96644937 2306.15750149 1614.93011313 2304.68747599 1609.89453125 2303.21484375 C1600.43704412 2300.45034751 1590.97652265 2297.69860052 1581.5 2295 C1573.36933924 2292.68457561 1565.2508928 2290.32953341 1557.13671875 2287.95703125 C1547.42948986 2285.1206621 1537.71492531 2282.30986299 1528 2279.5 C1514.58665568 2275.61991755 1501.17706556 2271.72743467 1487.77441406 2267.81054688 C1483.86016061 2266.66699518 1479.94535491 2265.52534008 1476.03051758 2264.38378906 C1474.01987262 2263.79742519 1472.00929253 2263.21083882 1469.9987793 2262.62402344 C1464.9886606 2261.16187092 1459.97766807 2259.70285156 1454.96484375 2258.25 C1445.07929924 2255.38131965 1435.21310998 2252.46512375 1425.375 2249.4375 C1417.06836729 2246.88552176 1408.72667644 2244.5220066 1400.33496094 2242.26708984 C1390.52381538 2239.62321124 1380.77963746 2236.75956544 1371.03222656 2233.89111328 C1366.02386356 2232.41925137 1361.01177722 2230.96018519 1356 2229.5 C1349.96424347 2227.74033006 1343.92881946 2225.97954295 1337.89453125 2224.21484375 C1328.43704419 2221.45034753 1318.97652578 2218.69858949 1309.5 2216 C1299.00234309 2213.01062739 1288.52450874 2209.9548196 1278.04833984 2206.89111328 C1273.03293687 2205.42497354 1268.01643195 2203.96261444 1263 2202.5 C1256.96428198 2200.74019773 1250.92881959 2198.97954299 1244.89453125 2197.21484375 C1235.43704419 2194.45034753 1225.97652578 2191.69858949 1216.5 2189 C1206.00234309 2186.01062739 1195.52450874 2182.9548196 1185.04833984 2179.89111328 C1181.03046229 2178.71657756 1177.01185855 2177.54453979 1172.99316406 2176.37280273 C1170.99634633 2175.79053329 1168.99960161 2175.2080134 1167.00292969 2174.62524414 C1161.9914309 2173.16267306 1156.97905315 2171.70325299 1151.96484375 2170.25 C1142.07929924 2167.38131965 1132.21310998 2164.46512375 1122.375 2161.4375 C1114.06836729 2158.88552176 1105.72667644 2156.5220066 1097.33496094 2154.26708984 C1087.52381538 2151.62321124 1077.77963746 2148.75956544 1068.03222656 2145.89111328 C1063.02386356 2144.41925137 1058.01177722 2142.96018519 1053 2141.5 C1046.96424347 2139.74033006 1040.92881946 2137.97954295 1034.89453125 2136.21484375 C1025.43704419 2133.45034753 1015.97652578 2130.69858949 1006.5 2128 C996.00234309 2125.01062739 985.52450874 2121.9548196 975.04833984 2118.89111328 C970.03293687 2117.42497354 965.01643195 2115.96261444 960 2114.5 C953.96428198 2112.74019773 947.92881959 2110.97954299 941.89453125 2109.21484375 C932.43704419 2106.45034753 922.97652578 2103.69858949 913.5 2101 C903.00234309 2098.01062739 892.52450874 2094.9548196 882.04833984 2091.89111328 C877.03293687 2090.42497354 872.01643195 2088.96261444 867 2087.5 C860.96428198 2085.74019773 854.92881959 2083.97954299 848.89453125 2082.21484375 C839.43704419 2079.45034753 829.97652578 2076.69858949 820.5 2074 C810.00234309 2071.01062739 799.52450874 2067.9548196 789.04833984 2064.89111328 C785.03046229 2063.71657756 781.01185855 2062.54453979 776.99316406 2061.37280273 C774.99634633 2060.79053329 772.99960161 2060.2080134 771.00292969 2059.62524414 C765.9914309 2058.16267306 760.97905315 2056.70325299 755.96484375 2055.25 C746.07929924 2052.38131965 736.21310998 2049.46512375 726.375 2046.4375 C718.06836729 2043.88552176 709.72667644 2041.5220066 701.33496094 2039.26708984 C691.52381538 2036.62321124 681.77963746 2033.75956544 672.03222656 2030.89111328 C667.02386356 2029.41925137 662.01177722 2027.96018519 657 2026.5 C650.96424347 2024.74033006 644.92881946 2022.97954295 638.89453125 2021.21484375 C629.43704419 2018.45034753 619.97652578 2015.69858949 610.5 2013 C600.00234309 2010.01062739 589.52450874 2006.9548196 579.04833984 2003.89111328 C574.03293687 2002.42497354 569.01643195 2000.96261444 564 1999.5 C557.96428198 1997.74019773 551.92881959 1995.97954299 545.89453125 1994.21484375 C536.43704419 1991.45034753 526.97652578 1988.69858949 517.5 1986 C507.00234309 1983.01062739 496.52450874 1979.9548196 486.04833984 1976.89111328 C482.03046229 1975.71657756 478.01185855 1974.54453979 473.99316406 1973.37280273 C471.99634633 1972.79053329 469.99960161 1972.2080134 468.00292969 1971.62524414 C462.9914309 1970.16267306 457.97905315 1968.70325299 452.96484375 1967.25 C443.07929924 1964.38131965 433.21310998 1961.46512375 423.375 1958.4375 C415.06836729 1955.88552176 406.72667644 1953.5220066 398.33496094 1951.26708984 C388.52381538 1948.62321124 378.77963746 1945.75956544 369.03222656 1942.89111328 C364.02386356 1941.41925137 359.01177722 1939.96018519 354 1938.5 C347.96424347 1936.74033006 341.92881946 1934.97954295 335.89453125 1933.21484375 C326.43704419 1930.45034753 316.97652578 1927.69858949 307.5 1925 C297.00234309 1922.01062739 286.52450874 1918.9548196 276.04833984 1915.89111328 C273.02863154 1915.00836979 270.00854292 1914.12694193 266.98828125 1913.24609375 C265.50569824 1912.81369385 265.50569824 1912.81369385 263.99316406 1912.37255859 C261.99652123 1911.79050301 259.99977625 1911.20879768 258.00292969 1910.62744141 C252.98724542 1909.16650699 247.97394307 1907.69821118 242.96484375 1906.21484375 C241.95486328 1905.91707031 240.94488281 1905.61929687 239.90429688 1905.3125 C238.04666576 1904.76462723 236.18977032 1904.21424688 234.33398438 1903.66015625 C228.76766004 1902.0222866 223.17517232 1900.52429266 217.55426025 1899.08786011 C203.26244449 1895.42616714 189.12186278 1891.28868711 174.98184204 1887.08761597 C167.47783227 1884.85830528 159.9693118 1882.6442445 152.4609375 1880.4296875 C151.69161959 1880.20267843 150.92230167 1879.97566936 150.1296711 1879.74178123 C134.38660827 1875.09764327 118.61795498 1870.54484108 102.84047699 1866.01921463 C96.76303958 1864.27593338 90.68600513 1862.53124937 84.609375 1860.78515625 C83.94018414 1860.5928713 83.27099327 1860.40058636 82.5815239 1860.20247459 C66.29028371 1855.51961633 50.01787752 1850.77234513 33.74847031 1846.01427078 C31.57435922 1845.37846814 29.4001763 1844.74291163 27.22598267 1844.10739136 C23.21416356 1842.9345751 19.20272814 1841.76045329 15.19140625 1840.5859375 C13.99481384 1840.23587143 12.79822144 1839.88580536 11.56536865 1839.52513123 C10.47460022 1839.20536819 9.38383179 1838.88560516 8.26000977 1838.55615234 C7.3110231 1838.27814789 6.36203644 1838.00014343 5.3842926 1837.7137146 C3.57991995 1837.17359335 1.78682469 1836.59560823 0 1836 C0 1230.12 0 624.24 0 0 Z M66 79 C66 645.61 66 1212.22 66 1796 C91.08 1803.26 116.16 1810.52 142 1818 C169.10737621 1825.84698666 169.10737621 1825.84698666 180.8815918 1829.26660156 C184.11802729 1830.20631362 187.35507702 1831.14387516 190.5925293 1832.08007812 C194.7270736 1833.27576468 198.86054983 1834.47507805 202.99329948 1835.67695236 C204.50497552 1836.11593003 206.01700851 1836.55368096 207.52945137 1836.99000931 C215.01976083 1839.15169129 222.41812358 1841.43097713 229.72251892 1844.16567993 C232.47773975 1845.17501259 235.25254839 1845.98052951 238.09375 1846.7109375 C239.1343457 1846.98317139 240.17494141 1847.25540527 241.24707031 1847.53588867 C242.32053711 1847.81279541 243.39400391 1848.08970215 244.5 1848.375 C254.04352058 1850.88713156 263.45842974 1853.63965157 272.84765625 1856.671875 C277.55081013 1858.18936614 282.29346135 1859.54567961 287.05078125 1860.8828125 C292.16941288 1862.32289202 297.27108877 1863.82126887 302.375 1865.3125 C303.40181885 1865.6120459 304.4286377 1865.9115918 305.48657227 1866.22021484 C310.6957765 1867.74035572 315.90361486 1869.26498035 321.109375 1870.796875 C330.67415403 1873.6064901 340.24535917 1876.3582411 349.875 1878.9375 C359.118581 1881.41826165 368.25583654 1884.19297178 377.39355469 1887.03662109 C385.80514269 1889.64948154 394.25060871 1892.10970611 402.7265625 1894.50390625 C408.49479543 1896.13377501 414.24742565 1897.81583855 420 1899.5 C427.63851984 1901.73451367 435.28297137 1903.94595301 442.9375 1906.125 C450.45023866 1908.26441689 457.94960893 1910.44476851 465.44140625 1912.65625 C479.46342604 1916.79420353 493.5034663 1920.86876064 507.56420898 1924.87304688 C514.20060146 1926.76537436 520.82287346 1928.70254489 527.44140625 1930.65625 C541.46342604 1934.79420353 555.5034663 1938.86876064 569.56420898 1942.87304688 C576.20060146 1944.76537436 582.82287346 1946.70254489 589.44140625 1948.65625 C603.46342604 1952.79420353 617.5034663 1956.86876064 631.56420898 1960.87304688 C637.50257285 1962.56633569 643.43078543 1964.29128421 649.35302734 1966.04003906 C656.44361762 1968.13374975 663.5410025 1970.20393789 670.6394043 1972.27099609 C675.79397482 1973.77220146 680.94732194 1975.2772871 686.09765625 1976.79296875 C695.66622154 1979.60433937 705.2413746 1982.35717385 714.875 1984.9375 C724.118581 1987.41826165 733.25583654 1990.19297178 742.39355469 1993.03662109 C750.80514269 1995.64948154 759.25060871 1998.10970611 767.7265625 2000.50390625 C773.49479543 2002.13377501 779.24742565 2003.81583855 785 2005.5 C792.63851984 2007.73451367 800.28297137 2009.94595301 807.9375 2012.125 C815.45023866 2014.26441689 822.94960893 2016.44476851 830.44140625 2018.65625 C844.46342604 2022.79420353 858.5034663 2026.86876064 872.56420898 2030.87304688 C879.20060146 2032.76537436 885.82287346 2034.70254489 892.44140625 2036.65625 C906.46342604 2040.79420353 920.5034663 2044.86876064 934.56420898 2048.87304688 C941.20060146 2050.76537436 947.82287346 2052.70254489 954.44140625 2054.65625 C968.46342604 2058.79420353 982.5034663 2062.86876064 996.56420898 2066.87304688 C1002.50257285 2068.56633569 1008.43078543 2070.29128421 1014.35302734 2072.04003906 C1021.44361762 2074.13374975 1028.5410025 2076.20393789 1035.6394043 2078.27099609 C1040.79397482 2079.77220146 1045.94732194 2081.2772871 1051.09765625 2082.79296875 C1060.66622154 2085.60433937 1070.2413746 2088.35717385 1079.875 2090.9375 C1089.118581 2093.41826165 1098.25583654 2096.19297178 1107.39355469 2099.03662109 C1115.80514269 2101.64948154 1124.25060871 2104.10970611 1132.7265625 2106.50390625 C1138.49479543 2108.13377501 1144.24742565 2109.81583855 1150 2111.5 C1157.63851984 2113.73451367 1165.28297137 2115.94595301 1172.9375 2118.125 C1180.45023866 2120.26441689 1187.94960893 2122.44476851 1195.44140625 2124.65625 C1209.46342604 2128.79420353 1223.5034663 2132.86876064 1237.56420898 2136.87304688 C1244.20060146 2138.76537436 1250.82287346 2140.70254489 1257.44140625 2142.65625 C1271.46342604 2146.79420353 1285.5034663 2150.86876064 1299.56420898 2154.87304688 C1306.20060146 2156.76537436 1312.82287346 2158.70254489 1319.44140625 2160.65625 C1337.90956191 2166.10627582 1356.39252349 2171.52063753 1374.953125 2176.6484375 C1386.87773773 2179.94749564 1398.73044479 2183.41327623 1410.54516602 2187.0871582 C1418.90642836 2189.68168553 1427.30203344 2192.12435475 1435.7265625 2194.50390625 C1441.49479543 2196.13377501 1447.24742565 2197.81583855 1453 2199.5 C1460.63851984 2201.73451367 1468.28297137 2203.94595301 1475.9375 2206.125 C1483.45023866 2208.26441689 1490.94960893 2210.44476851 1498.44140625 2212.65625 C1512.46342604 2216.79420353 1526.5034663 2220.86876064 1540.56420898 2224.87304688 C1547.20060146 2226.76537436 1553.82287346 2228.70254489 1560.44140625 2230.65625 C1574.46342604 2234.79420353 1588.5034663 2238.86876064 1602.56420898 2242.87304688 C1609.20060146 2244.76537436 1615.82287346 2246.70254489 1622.44140625 2248.65625 C1636.46342604 2252.79420353 1650.5034663 2256.86876064 1664.56420898 2260.87304688 C1671.20060146 2262.76537436 1677.82287346 2264.70254489 1684.44140625 2266.65625 C1692.93494982 2269.16272832 1701.43719749 2271.63936277 1709.94140625 2274.109375 C1712.98322275 2274.99511467 1716.02289742 2275.88794677 1719.0625 2276.78125 C1720.95825008 2277.33361916 1722.85407988 2277.88571476 1724.75 2278.4375 C1725.62495117 2278.696521 1726.49990234 2278.95554199 1727.40136719 2279.22241211 C1728.21250977 2279.45710205 1729.02365234 2279.69179199 1729.859375 2279.93359375 C1730.56545898 2280.14040771 1731.27154297 2280.34722168 1731.99902344 2280.56030273 C1734.30967882 2281.14308054 1734.30967882 2281.14308054 1738 2281 C1738 1714.39 1738 1147.78 1738 564 C1724.13801769 559.78113582 1710.28255482 555.58269794 1696.3671875 551.55078125 C1694.66244979 551.05564037 1692.95774919 550.56037171 1691.25308228 550.06498718 C1686.73174071 548.75146163 1682.20987639 547.43974484 1677.68789673 546.12841797 C1672.89122756 544.73708052 1668.09506531 543.34399758 1663.29882812 541.95117188 C1638.30212524 534.69309442 1613.30203513 527.44667287 1588.30082512 520.20413685 C1563.60401995 513.04961288 1538.91375701 505.87265951 1514.2243042 498.69281006 C1490.00980869 491.6511412 1465.79327064 484.61664531 1441.57149124 477.60007095 C1415.39779739 470.018058 1389.22871287 462.42029097 1363.0625 454.8125 C1361.71411482 454.42046576 1361.71411482 454.42046576 1360.33848953 454.02051163 C1345.6335204 449.74511599 1330.9287707 445.46896586 1316.2240448 441.19273376 C1302.46196529 437.19063803 1288.69981019 433.18880241 1274.9375 429.1875 C1274.03720692 428.925741 1273.13691383 428.66398201 1272.20933914 428.39429092 C1246.26223058 420.85029993 1220.31164983 413.31840652 1194.35714722 405.79989624 C1168.97588173 398.44728922 1143.60104533 391.07265699 1118.22742844 383.6937027 C1093.17601295 376.40847357 1068.12177725 369.13313972 1043.0625 361.875 C1017.69342296 354.52713023 992.33254151 347.15138268 966.97483063 339.76438904 C943.30054251 332.86788974 919.62237337 325.98505899 895.9375 319.125 C869.95374117 311.59909452 843.97559972 304.05401817 818 296.5 C792.860306 289.18915226 767.71878189 281.88474776 742.57149124 274.60007095 C716.39779739 267.018058 690.22871287 259.42029097 664.0625 251.8125 C663.16357655 251.55114384 662.26465309 251.28978767 661.33848953 251.02051163 C646.6335204 246.74511599 631.9287707 242.46896586 617.2240448 238.19273376 C603.46196529 234.19063803 589.69981019 230.18880241 575.9375 226.1875 C575.03720692 225.925741 574.13691383 225.66398201 573.20933914 225.39429092 C547.26223058 217.85029993 521.31164983 210.31840652 495.35714722 202.79989624 C469.97484129 195.44698782 444.5990002 188.07193257 419.2243042 180.69281006 C395.00980869 173.6511412 370.79327064 166.61664531 346.57149124 159.60007095 C320.39779739 152.018058 294.22871287 144.42029097 268.0625 136.8125 C267.16357655 136.55114384 266.26465309 136.28978767 265.33848953 136.02051163 C250.6335204 131.74511599 235.9287707 127.46896586 221.2240448 123.19273376 C215.68201049 121.58107676 210.13996914 119.96944399 204.59791565 118.35785294 C202.75749046 117.82266916 200.91706687 117.28747985 199.0766449 116.752285 C189.13180105 113.8603509 179.18676943 110.96906535 169.24121094 108.07958984 C168.36646622 107.82544374 167.4917215 107.57129765 166.59046936 107.30945015 C165.71873581 107.05617895 164.84700226 106.80290775 163.94885254 106.54196167 C163.08027115 106.28960629 162.21168976 106.0372509 161.31678772 105.77724838 C159.57345567 105.27075401 157.8301187 104.76427657 156.08677673 104.25781631 C145.72248827 101.24675124 135.35942081 98.23155071 124.99830151 95.20959759 C118.41424042 93.28931711 111.82946497 91.37150185 105.24413013 89.45559406 C100.6886166 88.13003758 96.13409546 86.80114277 91.58031082 85.46965981 C88.81831213 84.66298758 86.05535723 83.8596329 83.29210281 83.05727386 C81.41556877 82.51130652 79.5402092 81.9613075 77.66488647 81.41119385 C76.55771271 81.09043884 75.45053894 80.76968384 74.30981445 80.43920898 C73.35009232 80.15931625 72.39037018 79.87942352 71.40156555 79.59104919 C68.92669227 78.88051057 68.92669227 78.88051057 66 79 Z " fill="#944E25" transform="translate(20,19)"/>
<path d="M0 0 C23.1 0 46.2 0 70 0 C72.42476324 5.45571729 74.46864062 10.05598068 76.125 15.625 C76.55178365 17.02913369 76.98033538 18.43273056 77.41015625 19.8359375 C77.65523926 20.63741211 77.90032227 21.43888672 78.15283203 22.26464844 C79.91079383 27.94078792 81.738617 33.59476925 83.5625 39.25 C83.77583984 39.91189331 83.98917969 40.57378662 84.20898438 41.2557373 C87.61639359 51.8173156 91.10264067 62.3512714 94.625 72.875 C99.64571377 87.87553745 104.58770585 102.90111821 109.5 117.9375 C109.84524719 118.99298035 110.19049438 120.04846069 110.54620361 121.13592529 C113.7896725 131.05449381 117.02778997 140.9705794 120.06445312 150.95483398 C121.97648315 157.17841188 123.9940109 163.36871039 126 169.5625 C126.23277649 170.2823407 126.46555298 171.0021814 126.7053833 171.74383545 C131.00386128 185.02980913 135.40131823 198.2819573 139.8515625 211.51782227 C142.58776416 219.66909653 145.22432533 227.84391345 147.77148438 236.05615234 C149.81526484 242.63776666 151.94016739 249.19338726 154.0625 255.75 C154.29277893 256.46234802 154.52305786 257.17469604 154.76031494 257.90863037 C159.0400807 271.14007854 163.41992998 284.33732324 167.85180664 297.51855469 C170.35550297 304.97716779 172.79041451 312.45087912 175.12068176 319.96554565 C177.53540429 327.74834687 180.04658232 335.49942547 182.5625 343.25 C182.81645538 344.03337738 183.07041077 344.81675476 183.33206177 345.62387085 C187.77790808 359.332256 192.30947887 373.01117248 196.90258789 386.67089844 C199.62111304 394.76891421 202.23850202 402.89099511 204.76928711 411.04956055 C206.81399972 417.63330619 208.93920516 424.19126683 211.0625 430.75 C211.29643463 431.47331512 211.53036926 432.19663025 211.77139282 432.94186401 C215.35078672 444.00213878 218.99764645 455.03863894 222.6875 466.0625 C227.66650451 480.93805466 232.56666369 495.83868564 237.4375 510.75 C237.94910172 512.3144133 237.94910172 512.3144133 238.47103882 513.91043091 C242.00244655 524.71205138 245.5012815 535.52077455 248.87084961 546.37402344 C250.73020572 552.34486819 252.6433333 558.29815391 254.5625 564.25 C254.87240372 565.211978 254.87240372 565.211978 255.18856812 566.19338989 C259.30088736 578.94831914 263.53036065 591.66350295 267.80102539 604.36621094 C268.04306702 605.08807083 268.28510864 605.80993073 268.53448486 606.55366516 C269.18489537 608.49315027 269.83711778 610.43202749 270.48950195 612.37084961 C271.81208531 616.36975857 273.05986329 620.39131162 274.30908203 624.41357422 C276.80120481 632.42677334 279.40364809 640.40123451 282.03628731 648.36922264 C282.84130689 650.80583745 283.64470251 653.24298291 284.44773865 655.68025208 C286.43933078 661.72383064 288.43351935 667.76655166 290.42773438 673.80926514 C292.12320285 678.94705201 293.81760548 684.08518807 295.51063347 689.22377968 C296.29385977 691.59957742 297.07859995 693.97487132 297.86341858 696.35014343 C300.37408215 703.96170665 302.82557519 711.58490308 305.16172791 719.25236511 C306.20122034 722.65954721 307.28165794 726.05112507 308.375 729.44140625 C308.58095795 730.08006119 308.78691589 730.71871613 308.99911499 731.37672424 C309.6648675 733.4390426 310.33228078 735.50081764 311 737.5625 C311.23277649 738.2823407 311.46555298 739.0021814 311.7053833 739.74383545 C316.00386128 753.02980913 320.40131823 766.2819573 324.8515625 779.51782227 C327.58776416 787.66909653 330.22432533 795.84391345 332.77148438 804.05615234 C334.81526372 810.63776306 336.93996388 817.19345613 339.0625 823.75 C339.41240494 824.83198166 339.41240494 824.83198166 339.76937866 825.93582153 C343.38968729 837.12358822 347.08116719 848.2863316 350.8125 859.4375 C355.17811363 872.49282086 359.51104684 885.5586263 363.7930603 898.64163208 C364.42822938 900.58035923 365.06495504 902.51857714 365.70327759 904.45626831 C366.59295015 907.15825957 367.47691336 909.86205275 368.359375 912.56640625 C368.62749496 913.37715607 368.89561493 914.18790588 369.17185974 915.02322388 C370.177201 918.12146958 371 920.72072086 371 924 C345.26 924 319.52 924 293 924 C290.07125 915.234375 287.1425 906.46875 284.125 897.4375 C282.77365967 893.39713501 282.77365967 893.39713501 281.39501953 889.27514648 C277.28764823 876.97628185 273.23299797 864.6638539 269.2734375 852.31640625 C265.27733563 839.85957125 261.17428705 827.43994995 257.03125 815.03125 C256.72610348 814.11724489 256.42095695 813.20323978 256.10656357 812.26153755 C253.90652707 805.67363861 251.7035703 799.08671762 249.5 792.5 C246.98762686 784.99023621 244.47646296 777.48007141 241.96875 769.96875 C241.66263668 769.05193073 241.35652336 768.13511147 241.04113388 767.1905098 C237.31307283 756.01831799 233.63191174 744.83361459 230.0390625 733.6171875 C226.02991767 721.10246404 221.9037218 708.6288768 217.7421875 696.1640625 C217.42317223 695.2084568 217.10415695 694.2528511 216.77547455 693.26828766 C214.4774641 686.38647334 212.17652432 679.50563981 209.875 672.625 C194.93393122 627.95655736 194.93393122 627.95655736 190.0703125 612.8359375 C189.74570038 611.8312442 189.42108826 610.8265509 189.0866394 609.79141235 C188.80297516 608.90166718 188.51931091 608.011922 188.22705078 607.09521484 C187.98657013 606.34235199 187.74608948 605.58948914 187.49832153 604.81381226 C187 603 187 603 187 601 C87.67 601 -11.66 601 -114 601 C-114.33 603.31 -114.66 605.62 -115 608 C-115.5174057 609.89346436 -116.08523054 611.77386944 -116.70239258 613.63720703 C-117.04977982 614.69585968 -117.39716705 615.75451233 -117.75508118 616.84524536 C-118.31910896 618.53446609 -118.31910896 618.53446609 -118.89453125 620.2578125 C-119.477472 622.02788162 -119.477472 622.02788162 -120.07218933 623.83370972 C-121.1038572 626.96346949 -122.14041057 630.09155119 -123.17962646 633.21881104 C-124.63244115 637.59462889 -126.07614714 641.97346176 -127.52067566 646.35202026 C-128.28785329 648.67568565 -129.05686351 650.99874715 -129.82807922 653.32107544 C-132.00912995 659.90722262 -134.10448252 666.51361156 -136.12333679 673.15133667 C-137.34618414 677.12490413 -138.66472349 681.06311137 -140 685 C-141.73205698 690.14853937 -143.42449067 695.30081921 -145 700.5 C-146.8149552 706.48935215 -148.79544316 712.41614523 -150.7890625 718.34765625 C-152.25231126 722.7152321 -153.66403995 727.09133184 -155 731.5 C-156.8149552 737.48935215 -158.79544316 743.41614523 -160.7890625 749.34765625 C-162.25231126 753.7152321 -163.66403995 758.09133184 -165 762.5 C-166.8149552 768.48935215 -168.79544316 774.41614523 -170.7890625 780.34765625 C-172.25231126 784.7152321 -173.66403995 789.09133184 -175 793.5 C-176.57552947 798.69924726 -178.2695314 803.85089217 -180 809 C-182.04837742 815.10013387 -184.02259905 821.21347161 -185.88964844 827.37207031 C-190.33225196 841.88770099 -195.03524413 856.32103776 -199.75 870.75 C-205.54258761 888.48644737 -211.27175219 906.24243179 -217 924 C-243.07 924 -269.14 924 -296 924 C-295.25718979 918.80032855 -294.5577087 915.35021324 -292.75 910.625 C-290.75789716 905.23426639 -289.01675013 899.83741939 -287.4375 894.3125 C-285.84506001 888.75618891 -284.07618241 883.34667606 -282.03125 877.9375 C-280.70675972 874.16470951 -279.60441157 870.34201357 -278.5 866.5 C-276.88508837 860.88206501 -275.09925347 855.40770273 -273.03125 849.9375 C-271.70675972 846.16470951 -270.60441157 842.34201357 -269.5 838.5 C-267.88508837 832.88206501 -266.09925347 827.40770273 -264.03125 821.9375 C-262.70675972 818.16470951 -261.60441157 814.34201357 -260.5 810.5 C-258.88508837 804.88206501 -257.09925347 799.40770273 -255.03125 793.9375 C-253.70675972 790.16470951 -252.60441157 786.34201357 -251.5 782.5 C-249.88508837 776.88206501 -248.09925347 771.40770273 -246.03125 765.9375 C-244.70675972 762.16470951 -243.60441157 758.34201357 -242.5 754.5 C-240.88508837 748.88206501 -239.09925347 743.40770273 -237.03125 737.9375 C-235.70675972 734.16470951 -234.60441157 730.34201357 -233.5 726.5 C-231.88508837 720.88206501 -230.09925347 715.40770273 -228.03125 709.9375 C-226.70675972 706.16470951 -225.60441157 702.34201357 -224.5 698.5 C-222.88508837 692.88206501 -221.09925347 687.40770273 -219.03125 681.9375 C-217.70675972 678.16470951 -216.60441157 674.34201357 -215.5 670.5 C-213.88508837 664.88206501 -212.09925347 659.40770273 -210.03125 653.9375 C-208.70675972 650.16470951 -207.60441157 646.34201357 -206.5 642.5 C-204.88508837 636.88206501 -203.09925347 631.40770273 -201.03125 625.9375 C-199.70675972 622.16470951 -198.60441157 618.34201357 -197.5 614.5 C-195.88508837 608.88206501 -194.09925347 603.40770273 -192.03125 597.9375 C-190.70675972 594.16470951 -189.60441157 590.34201357 -188.5 586.5 C-186.88508837 580.88206501 -185.09925347 575.40770273 -183.03125 569.9375 C-181.70675972 566.16470951 -180.60441157 562.34201357 -179.5 558.5 C-177.88508837 552.88206501 -176.09925347 547.40770273 -174.03125 541.9375 C-172.70675972 538.16470951 -171.60441157 534.34201357 -170.5 530.5 C-168.88508837 524.88206501 -167.09925347 519.40770273 -165.03125 513.9375 C-163.70675972 510.16470951 -162.60441157 506.34201357 -161.5 502.5 C-159.88508837 496.88206501 -158.09925347 491.40770273 -156.03125 485.9375 C-154.70675972 482.16470951 -153.60441157 478.34201357 -152.5 474.5 C-150.88508837 468.88206501 -149.09925347 463.40770273 -147.03125 457.9375 C-145.70675972 454.16470951 -144.60441157 450.34201357 -143.5 446.5 C-141.88508837 440.88206501 -140.09925347 435.40770273 -138.03125 429.9375 C-136.70675972 426.16470951 -135.60441157 422.34201357 -134.5 418.5 C-132.88508837 412.88206501 -131.09925347 407.40770273 -129.03125 401.9375 C-127.70675972 398.16470951 -126.60441157 394.34201357 -125.5 390.5 C-123.88508837 384.88206501 -122.09925347 379.40770273 -120.03125 373.9375 C-118.70675972 370.16470951 -117.60441157 366.34201357 -116.5 362.5 C-114.88508837 356.88206501 -113.09925347 351.40770273 -111.03125 345.9375 C-109.70675972 342.16470951 -108.60441157 338.34201357 -107.5 334.5 C-105.88508837 328.88206501 -104.09925347 323.40770273 -102.03125 317.9375 C-100.70675972 314.16470951 -99.60441157 310.34201357 -98.5 306.5 C-96.88508837 300.88206501 -95.09925347 295.40770273 -93.03125 289.9375 C-91.70675972 286.16470951 -90.60441157 282.34201357 -89.5 278.5 C-87.88508837 272.88206501 -86.09925347 267.40770273 -84.03125 261.9375 C-82.70675972 258.16470951 -81.60441157 254.34201357 -80.5 250.5 C-78.88508837 244.88206501 -77.09925347 239.40770273 -75.03125 233.9375 C-73.70675972 230.16470951 -72.60441157 226.34201357 -71.5 222.5 C-69.88508837 216.88206501 -68.09925347 211.40770273 -66.03125 205.9375 C-64.70675972 202.16470951 -63.60441157 198.34201357 -62.5 194.5 C-60.88508837 188.88206501 -59.09925347 183.40770273 -57.03125 177.9375 C-55.70675972 174.16470951 -54.60441157 170.34201357 -53.5 166.5 C-51.88508837 160.88206501 -50.09925347 155.40770273 -48.03125 149.9375 C-46.70675972 146.16470951 -45.60441157 142.34201357 -44.5 138.5 C-42.88508837 132.88206501 -41.09925347 127.40770273 -39.03125 121.9375 C-37.70675972 118.16470951 -36.60441157 114.34201357 -35.5 110.5 C-33.88508837 104.88206501 -32.09925347 99.40770273 -30.03125 93.9375 C-28.70675972 90.16470951 -27.60441157 86.34201357 -26.5 82.5 C-24.88508837 76.88206501 -23.09925347 71.40770273 -21.03125 65.9375 C-19.70675972 62.16470951 -18.60441157 58.34201357 -17.5 54.5 C-15.88508837 48.88206501 -14.09925347 43.40770273 -12.03125 37.9375 C-10.45244738 33.44030465 -9.1779573 28.85948858 -7.86206055 24.27978516 C-6.40841211 19.26646805 -4.77197189 14.36554405 -2.89453125 9.4921875 C-1.77701863 6.37876807 -0.90875054 3.18062689 0 0 Z " fill="#944E25" transform="translate(963,853)"/>
<path d="M0 0 C2.38170548 2.38170548 2.83868573 4.09414902 3.86010742 7.29394531 C4.21775681 8.4040094 4.57540619 9.51407349 4.94389343 10.65777588 C5.32721329 11.86899109 5.71053314 13.0802063 6.10546875 14.328125 C6.50776199 15.58268494 6.91005524 16.83724487 7.32453918 18.12982178 C8.40080852 21.48653757 9.46964526 24.84557582 10.5369873 28.20513916 C11.59638611 31.53531727 12.66273449 34.86326644 13.72851562 38.19140625 C15.77961849 44.60044666 17.82262659 51.01203535 19.86251831 57.4246521 C20.94117829 60.8151108 22.02123137 64.20512202 23.10180664 67.5949707 C23.72937604 69.56460104 24.35690184 71.53424526 24.984375 73.50390625 C25.40259773 74.81618195 25.40259773 74.81618195 25.82926941 76.15496826 C27.58146963 81.66085891 29.29520736 87.17754272 30.984375 92.703125 C38.05564845 115.6575665 45.47568119 138.50792098 52.85006714 161.3661499 C59.24500472 181.19208214 65.62172271 201.02367872 71.9375 220.875 C72.36459763 222.21646088 72.36459763 222.21646088 72.80032349 223.58502197 C75.62269855 232.45263116 78.4239332 241.3252744 81.14819336 250.22363281 C88.66687326 274.72991765 96.63259994 299.10431833 104.5 323.5 C113.7524512 352.19052706 113.7524512 352.19052706 117.96484375 365.42578125 C118.24489258 366.30556641 118.52494141 367.18535156 118.81347656 368.09179688 C120.56323151 373.59916006 122.28101936 379.11540938 123.9609375 384.64453125 C124.80102793 387.35745485 125.66312588 390.06029633 126.5390625 392.76171875 C126.81097412 393.60581299 127.08288574 394.44990723 127.36303711 395.31958008 C127.8982531 396.97848021 128.43787588 398.63596741 128.98266602 400.29174805 C129.22944092 401.05914307 129.47621582 401.82653809 129.73046875 402.6171875 C129.95114014 403.29378418 130.17181152 403.97038086 130.39916992 404.66748047 C131.18648903 407.72398056 131.55363548 410.87544837 132 414 C46.53 414 -38.94 414 -127 414 C-124.78461538 402.92307692 -124.78461538 402.92307692 -123.25 399.1875 C-121.32999502 394.1282168 -119.82515518 389.01998878 -118.375 383.8125 C-115.73006165 374.36254684 -112.86809367 364.98931421 -109.9375 355.625 C-109.7299408 354.9598941 -109.52238159 354.29478821 -109.30853271 353.60952759 C-107.0628535 346.41942598 -104.76292393 339.25224325 -102.359375 332.11328125 C-100.52131105 326.63021877 -98.83739991 321.13927681 -97.3125 315.5625 C-94.77188903 306.4882802 -92.01131573 297.48905089 -89.1875 288.5 C-88.97366669 287.8192038 -88.75983337 287.13840759 -88.53952026 286.4369812 C-87.66938371 283.66791997 -86.79866208 280.89904383 -85.92704773 278.13044739 C-83.72506153 271.13419415 -81.54758566 264.13044169 -79.375 257.125 C-79.00818115 255.94341309 -78.6413623 254.76182617 -78.26342773 253.54443359 C-76.44402918 247.67856013 -74.63326318 241.81017611 -72.8359375 235.9375 C-72.14072573 233.66663583 -71.44541555 231.39580178 -70.75 229.125 C-70.41742187 228.03888428 -70.08484375 226.95276855 -69.7421875 225.83374023 C-68.02718222 220.25694761 -66.25774539 214.70982009 -64.375 209.1875 C-62.43044442 203.46402474 -60.75278307 197.69403322 -59.125 191.875 C-56.89638593 183.90896685 -54.44280384 176.05413333 -51.71142578 168.24560547 C-49.66283094 162.29362374 -47.91721431 156.2744167 -46.20703125 150.21875 C-43.06012483 139.083781 -39.64947029 128.04038146 -36.1875 117 C-35.56792457 115.01725621 -34.94862478 113.03442627 -34.32958984 111.05151367 C-33.11027304 107.14647731 -31.88987486 103.24178204 -30.66845703 99.33740234 C-28.47763685 92.33209505 -26.29960362 85.32285712 -24.125 78.3125 C-23.59797485 76.61552979 -23.59797485 76.61552979 -23.06030273 74.88427734 C-21.31358201 69.25545234 -19.57634441 63.62386957 -17.8515625 57.98828125 C-17.15114561 55.70048901 -16.45062695 53.41272792 -15.75 51.125 C-15.25064941 49.49425537 -15.25064941 49.49425537 -14.74121094 47.83056641 C-13.02653223 42.25483267 -11.25738783 36.70877131 -9.375 31.1875 C-6.44509821 22.56721072 -4.02971023 13.79828407 -1.58496094 5.03027344 C-1.09824037 3.34097116 -0.55593517 1.66780551 0 0 Z " fill="#EBAB56" transform="translate(997,967)"/>
</svg>
